# xmcd
#
# Track frame offsets:
#	150
#	13542
#	24410
#	36720
#	51422
#	64817
#	79130
#	92820
#	107660
#	122612
#	136527
#	151027
#	164932
#	179687
#	193487
#	206410
#	219225
#	232357
#	246610
#	260262
#	273967
#	286977
#	300472
#	313275
#
# Disc length: 4365 seconds
#
# Revision: 0
# Processed by: cddbd v1.5.2PL0 Copyright (c) Steve Scherf et al.
# Submitted via: dBpowerAMP V4.0
#
DISCID=6a110b18
DTITLE=Blind willie mctell - king of the blues
DYEAR=1900
DGENRE=blues
TTITLE0=mama 'tain't long fo' Day
TTITLE1=mr.mctell got the blues
TTITLE2=three women blues
TTITLE3=travelin' blues
TTITLE4=kind mama
TTITLE5=love changing blues
TTITLE6=searey day blues
TTITLE7=rough alley blues
TTITLE8=low rider's blues
TTITLE9=georgia rag
TTITLE10=low down blues
TTITLE11=rollin' mama blues
TTITLE12=lonesome day blues
TTITLE13=it's your time to worry
TTITLE14=it's a good little thing
TTITLE15=you was born to die
TTITLE16=love makin' mama
TTITLE17=death call blues
TTITLE18=b and o blues
TTITLE19=weary hearted blues
TTITLE20=we got to meet death one day
TTITLE21=dying gambler
TTITLE22=bell street blues
TTITLE23=cold winter day
EXTD=
EXTT0=
EXTT1=
EXTT2=
EXTT3=
EXTT4=
EXTT5=
EXTT6=
EXTT7=
EXTT8=
EXTT9=
EXTT10=
EXTT11=
EXTT12=
EXTT13=
EXTT14=
EXTT15=
EXTT16=
EXTT17=
EXTT18=
EXTT19=
EXTT20=
EXTT21=
EXTT22=
EXTT23=
PLAYORDER=
